<?xml version="1.0" standalone="no"?>
<!DOCTYPE svg PUBLIC "-//W3C//DTD SVG 20010904//EN"
 "http://www.w3.org/TR/2001/REC-SVG-20010904/DTD/svg10.dtd">
<svg version="1.0" xmlns="http://www.w3.org/2000/svg"
 width="700.000000pt" height="700.000000pt" viewBox="0 0 700.000000 700.000000"
 preserveAspectRatio="xMidYMid meet">
<metadata>
Created by potrace 1.11, written by Peter Selinger 2001-2013
</metadata>
<g transform="translate(0.000000,700.000000) scale(0.100000,-0.100000)"
fill="#000000" stroke="none">
<path d="M0 3500 l0 -3500 3500 0 3500 0 0 3500 0 3500 -3500 0 -3500 0 0
-3500z m2555 2056 c2278 -998 2785 -1222 2812 -1242 54 -41 78 -90 78 -164 0
-58 -7 -80 -62 -204 -35 -77 -61 -141 -59 -143 2 -2 75 -32 162 -67 109 -43
158 -68 156 -77 -5 -25 -413 -1044 -421 -1052 -5 -4 -88 24 -186 63 -98 39
-181 67 -185 63 -3 -4 -24 -48 -45 -96 -56 -130 -140 -190 -243 -173 -22 3
-292 114 -602 246 -309 132 -568 240 -574 240 -6 0 -73 -155 -149 -344 -76
-189 -154 -366 -172 -393 -37 -55 -87 -99 -152 -133 -93 -48 -116 -50 -640
-50 l-493 0 0 -320 0 -320 -215 0 -215 0 0 860 0 860 215 0 215 0 0 -325 0
-325 468 0 467 0 130 326 c72 179 131 329 133 334 2 4 -284 130 -635 280 -351
150 -664 285 -695 301 -77 39 -150 114 -189 196 -26 55 -34 84 -37 150 -3 47
1 103 7 130 11 43 465 1111 513 1207 27 53 103 132 158 164 86 51 136 63 245
59 94 -3 106 -6 210 -51z"/>
<path d="M2091 4643 c-127 -295 -232 -543 -233 -551 -2 -11 345 -164 1292
-569 712 -304 1302 -555 1311 -558 12 -4 65 107 250 526 129 292 235 534 237
538 1 4 -46 28 -105 53 -60 26 -225 99 -368 161 -1154 508 -2136 937 -2144
937 -4 0 -113 -242 -240 -537z"/>
</g>
</svg>
